<?xml version="1.0" standalone="no"?>
<!DOCTYPE svg PUBLIC "-//W3C//DTD SVG 20010904//EN"
 "http://www.w3.org/TR/2001/REC-SVG-20010904/DTD/svg10.dtd">
<svg version="1.0" xmlns="http://www.w3.org/2000/svg"
 width="528.000000pt" height="521.000000pt" viewBox="0 0 528.000000 521.000000"
 preserveAspectRatio="xMidYMid meet">
<metadata>
Created by potrace 1.15, written by Peter Selinger 2001-2017
</metadata>
<g transform="translate(0.000000,521.000000) scale(0.100000,-0.100000)"
fill="#000000" stroke="none">
<path d="M2430 4499 c-436 -49 -834 -241 -1146 -553 -225 -225 -379 -475 -474
-771 -170 -531 -98 -1128 193 -1595 103 -164 272 -357 422 -480 645 -528 1580
-575 2275 -114 117 78 199 146 307 256 164 166 258 298 358 503 437 889 121
1969 -727 2486 -354 216 -797 314 -1208 268z m515 -74 c398 -71 719 -239 1005
-525 141 -141 225 -250 315 -410 290 -513 311 -1157 56 -1695 -410 -864 -1397
-1275 -2300 -960 -759 265 -1266 1006 -1238 1810 14 384 125 712 349 1030 79
112 285 322 398 405 280 205 579 321 940 364 76 9 389 -3 475 -19z"/>
<path d="M2180 4133 c-54 -20 -66 -78 -25 -118 31 -32 59 -32 92 1 20 20 24
31 19 57 -9 47 -48 74 -86 60z"/>
<path d="M1861 3994 c-25 -32 -25 -36 -6 -74 19 -36 59 -49 93 -29 36 20 44
50 24 90 -14 28 -23 35 -53 37 -30 3 -41 -2 -58 -24z"/>
<path d="M2435 3884 c-549 -85 -995 -525 -1089 -1073 -20 -120 -21 -329 -1
-444 47 -267 169 -500 365 -698 189 -192 404 -309 670 -366 119 -25 401 -25
520 0 265 57 475 172 670 367 200 199 319 430 365 709 27 158 17 378 -23 534
-132 510 -558 893 -1082 972 -117 18 -276 18 -395 -1z m359 -93 c236 -116 231
-454 -9 -571 -40 -20 -65 -24 -130 -24 -102 -1 -166 26 -230 95 -66 70 -88
127 -88 219 0 91 22 147 84 215 100 108 238 133 373 66z m-635 -373 c4 -13 12
-45 16 -73 10 -69 39 -121 84 -151 22 -14 100 -47 174 -73 73 -26 147 -58 163
-70 l29 -23 -37 4 c-20 2 -34 0 -32 -4 3 -4 -63 -8 -145 -8 -83 0 -151 -4
-151 -8 0 -4 24 -62 54 -127 l54 -120 126 -3 126 -3 0 -49 0 -50 -100 0 c-55
0 -100 -4 -100 -8 0 -4 23 -60 51 -122 28 -63 53 -121 56 -127 3 -8 23 -13 49
-13 l44 0 0 -45 c0 -41 -2 -45 -25 -45 l-25 0 25 -56 c22 -49 25 -71 25 -166
0 -67 -4 -107 -10 -103 -5 3 -4 -9 3 -27 11 -30 12 -21 17 87 6 142 20 129 20
-17 0 -56 3 -98 7 -94 4 3 6 43 5 89 l-1 82 16 -35 c9 -19 16 -39 14 -44 -1
-5 5 -3 14 4 26 21 25 7 -2 -25 -18 -21 -23 -24 -19 -10 6 17 5 18 -6 7 -11
-11 -10 -16 5 -26 15 -12 15 -15 2 -26 -8 -7 -15 -17 -15 -22 0 -6 8 0 18 12
9 12 42 30 72 40 30 11 47 19 37 20 -10 0 -34 -7 -54 -15 -44 -19 -44 -19 -36
3 17 49 28 52 175 49 77 -1 129 -5 116 -9 -15 -5 -13 -6 7 -2 17 3 130 8 253
11 211 5 222 4 223 -14 0 -16 1 -16 9 2 8 19 9 18 11 -5 1 -22 2 -22 6 -4 3
18 12 22 54 23 40 0 49 -2 49 -17 -1 -32 -38 -284 -43 -288 -3 -3 -179 4 -392
15 l-387 21 -21 -26 c-57 -73 -197 -73 -255 1 l-20 25 -387 -21 c-213 -11
-389 -18 -392 -15 -12 11 -155 1110 -145 1114 5 1 22 14 37 26 22 19 27 30 23
55 -4 26 1 37 25 57 41 35 114 70 184 90 l59 16 -8 72 c-12 120 -10 136 11
136 12 0 20 -9 24 -29 11 -56 81 -116 173 -152 l26 -9 -7 159 c-4 88 -4 164
-1 170 12 19 36 12 45 -11z m1003 -113 c-1 -72 -4 -156 -6 -187 -2 -41 0 -58
10 -62 21 -8 17 -36 -6 -36 -14 0 -20 7 -21 23 0 21 -1 21 -9 2 -7 -18 -8 -16
-12 10 l-5 30 -2 -32 -1 -33 -196 0 c-107 0 -193 4 -190 8 2 4 -11 6 -30 4
-80 -10 -4 35 159 91 190 67 235 106 252 222 11 73 22 97 43 93 15 -3 17 -17
14 -133z m237 -47 c0 -18 -3 -65 -7 -105 l-8 -72 46 -11 c59 -15 146 -54 187
-86 27 -21 33 -32 33 -64 0 -29 6 -43 26 -59 14 -11 30 -21 36 -23 11 -4 -19
-266 -33 -282 -4 -5 -24 1 -43 14 -26 15 -36 29 -37 48 l-1 27 -8 -25 c-8 -25
-8 -25 -10 5 -2 25 -3 26 -7 7 -3 -13 -8 -22 -12 -20 -4 2 -46 25 -94 52 l-86
49 27 32 c15 18 51 60 80 93 l52 60 -82 48 c-46 26 -116 65 -155 86 -65 35
-90 58 -64 58 5 0 32 15 59 34 43 29 52 31 55 17 3 -9 5 -1 6 18 l1 34 -20
-25 c-28 -36 -122 -83 -146 -74 -16 6 -10 12 37 36 64 33 114 85 124 129 5 22
12 31 26 31 15 0 19 -7 18 -32z m-48 -280 c79 -45 146 -83 148 -84 2 -2 -18
-29 -45 -60 -27 -31 -61 -71 -75 -88 l-26 -30 -17 32 -17 32 -467 0 -467 0
-47 108 -47 107 466 3 c407 2 464 4 459 17 -3 8 -9 22 -12 30 -3 8 -4 15 -1
15 3 0 69 -37 148 -82z m-40 -244 c5 -14 9 -37 8 -52 0 -24 -1 -25 -9 -7 -7
17 -9 17 -9 3 -1 -16 -12 -18 -91 -18 l-90 0 -2 33 -1 32 -5 -35 -5 -35 -7 35
-7 35 -2 -32 -1 -33 -215 0 -215 0 0 50 0 50 321 -1 320 -1 10 -24z m217 -128
c67 -38 125 -72 127 -77 6 -9 -132 -169 -145 -169 -4 0 -11 11 -14 25 l-6 25
-472 2 -472 3 -48 105 c-26 58 -47 108 -47 113 -1 4 208 7 464 7 l465 0 -10
26 c-14 36 -13 38 13 22 12 -8 77 -45 145 -82z m-256 -253 l1 -38 5 40 6 40 6
-40 7 -40 2 38 1 37 83 0 83 0 17 -35 c9 -20 17 -40 17 -45 0 -6 -78 -10 -200
-10 l-200 0 -2 38 -1 37 -5 -40 -6 -40 -6 40 -7 40 -2 -37 -1 -38 -205 0 -205
0 0 45 0 45 305 0 305 0 2 -37z m401 -103 c77 -45 143 -83 145 -85 3 -3 -17
-30 -44 -61 -27 -31 -61 -71 -75 -88 l-26 -30 -17 32 -17 32 -359 0 -359 0 -6
58 c-13 122 -16 132 -36 132 -15 0 -19 -7 -19 -34 0 -18 -3 -61 -6 -95 l-7
-61 -71 0 -71 0 -45 101 c-25 56 -46 105 -48 110 -2 5 192 9 463 9 411 0 466
2 461 15 -3 8 -9 22 -12 30 -3 8 -3 15 0 15 4 0 71 -36 149 -80z"/>
<path d="M2565 3530 c-2 -3 -6 -22 -10 -42 -7 -36 -6 -37 30 -44 35 -6 162 -1
170 8 2 2 -1 22 -6 43 l-10 40 -85 0 c-47 0 -87 -2 -89 -5z"/>
<path d="M2542 3390 l3 -35 100 -3 c55 -1 106 2 113 6 8 5 10 19 6 38 l-5 29
-110 0 -110 0 3 -35z"/>
<path d="M1135 3204 c-8 -20 -15 -39 -15 -43 0 -3 23 -16 50 -28 37 -16 50
-27 50 -42 0 -18 -6 -21 -39 -21 -56 0 -99 -10 -105 -25 -5 -14 111 -111 121
-101 4 3 1 17 -6 30 -16 29 -7 63 18 71 22 7 46 59 36 76 -4 6 -27 20 -51 31
-45 19 -49 24 -36 45 6 9 18 7 51 -8 48 -21 74 -24 69 -8 -3 9 -109 59 -125
59 -1 0 -10 -16 -18 -36z"/>
<path d="M1036 2785 c-48 -49 -12 -125 60 -125 24 0 64 47 64 75 0 54 -85 89
-124 50z"/>
<path d="M2363 1121 c-23 -19 -32 -71 -13 -71 5 0 11 -42 12 -92 l3 -93 38 -3
38 -3 -3 138 -3 138 -25 2 c-14 2 -35 -6 -47 -16z"/>
<path d="M2481 1126 c-18 -21 -26 -119 -12 -144 7 -14 8 -23 1 -27 -35 -22 16
-105 65 -105 14 0 37 11 50 25 23 22 25 31 25 122 0 122 -11 143 -74 143 -26
0 -48 -6 -55 -14z m87 -12 c20 -14 22 -23 22 -114 0 -76 -4 -102 -16 -114 -32
-33 -94 -10 -94 35 0 26 36 25 43 -1 9 -33 27 -22 27 16 0 32 -3 36 -20 31
-31 -8 -50 19 -50 72 0 48 13 74 40 84 23 8 24 8 48 -9z"/>
<path d="M2650 1125 c-6 -8 -14 -33 -17 -55 -5 -36 -3 -42 16 -47 27 -7 27
-29 0 -44 -18 -9 -21 -17 -16 -52 10 -74 74 -101 123 -51 23 22 25 31 20 72
-7 60 -7 60 0 105 9 57 -15 87 -70 87 -26 0 -48 -6 -56 -15z m98 -17 c20 -16
15 -76 -7 -90 -20 -12 -20 -12 0 -26 13 -9 19 -25 19 -52 0 -44 -20 -70 -55
-70 -33 0 -55 26 -55 66 0 27 4 34 19 34 15 0 21 -8 23 -32 4 -45 22 -41 26 5
3 32 0 39 -17 44 -27 7 -27 19 0 33 15 9 19 19 17 43 -4 37 -22 39 -26 2 -5
-38 -42 -35 -42 4 0 51 55 73 98 39z"/>
<path d="M2816 1118 c-12 -17 -16 -47 -16 -121 0 -91 2 -100 25 -122 29 -30
64 -32 96 -6 22 17 24 28 27 118 3 126 -6 147 -70 151 -39 3 -49 -1 -62 -20z
m94 -8 c17 -17 20 -33 20 -114 0 -103 -10 -126 -55 -126 -45 0 -55 23 -55 130
0 91 2 100 22 114 30 21 44 20 68 -4z"/>
</g>
</svg>
